<svg id="组_3" data-name="组 3" xmlns="http://www.w3.org/2000/svg" width="1701" height="1707" viewBox="0 0 1701 1707">
  <defs>
    <style>
      .cls-1 {
        fill-rule: evenodd;
      }
    </style>
  </defs>
  <path id="China_Community_Development_Association" data-name="China Community Development Association" class="cls-1" d="M599,381s279.756-115.257,416,175h158s-17.22-182.566-167-256C1006,300,775.712,189.6,599,381Zm-1,1s-47.606,159.274,81,223V720S568.185,693.533,547,589C547,589,520.056,458.584,598,382Zm764.23,243.545s115.34,279.978-175.12,416.325V1200s182.7-17.24,256.18-167.13C1443.29,1032.87,1553.77,802.4,1362.23,625.545Zm-1-1s-159.38-47.644-223.15,81.064H1023s26.49-110.9,131.09-132.1C1154.09,573.5,1284.6,546.539,1361.23,624.544ZM1109.46,1341.26S829.477,1456.6,693.125,1166.12H535s17.238,182.71,167.132,256.2C702.132,1422.32,932.6,1532.81,1109.46,1341.26Zm1-1s47.64-159.4-81.07-223.17V1002s110.9,26.49,132.11,131.1C1161.5,1133.1,1188.46,1263.61,1110.46,1340.26Zm-762.718-250.8S232.4,809.477,522.875,673.125V515S340.17,532.238,266.68,682.132C266.68,682.132,156.194,912.6,347.742,1089.46Zm1,1s159.395,47.64,223.169-81.07H687s-26.487,110.9-131.1,132.11C555.9,1141.5,425.385,1168.46,348.743,1090.46ZM748.45,624.894s126.012-52.055,187.381,79.037H1007s-7.758-82.454-75.223-115.62C931.777,588.311,828.047,538.449,748.45,624.894Zm-0.451.452s-21.443,71.934,36.486,100.715V778s-49.915-11.954-59.458-59.165C725.027,718.835,712.891,659.934,748,625.346Zm326.111,118.1s52.05,126.012-79.041,187.381V1002s82.451-7.758,115.621-75.223C1110.69,926.777,1160.55,823.047,1074.11,743.45Zm-0.46-.451s-71.93-21.443-100.711,36.486H921s11.954-49.915,59.165-59.458C980.165,720.027,1039.07,707.891,1073.65,743ZM959.55,1090.11s-126.012,52.05-187.381-79.04H701s7.758,82.45,75.223,115.62C776.223,1126.69,879.953,1176.55,959.55,1090.11Zm0.451-.46s21.443-71.93-36.486-100.711V937s49.915,11.954,59.458,59.165C982.973,996.165,995.109,1055.07,960,1089.65ZM632.894,974.55s-52.055-126.012,79.037-187.381V716s-82.454,7.758-115.62,75.223C596.311,791.223,546.449,894.953,632.894,974.55ZM633.346,975s71.934,21.443,100.715-36.486H786s-11.954,49.915-59.165,59.458C726.835,997.973,667.934,1010.11,633.346,975ZM136.363,524.648l21.943,10.25-27.344,58.54,61.265,28.617,7.318-15.665-7.231-3.378,20.028-42.873,42.492,19.848,7.549-16.16L219.89,543.978,240,500.94l7.23,3.377,7.317-15.666-61.265-28.617-27.422,58.7-21.944-10.25ZM180.518,597.5l-30.442-14.22L170.1,540.408l30.442,14.22Zm27.576-59.034-30.442-14.22,20.1-43.038L228.2,495.429Zm62.068-176.937,8.775,8.245,24.924-26.528,12.55,11.792-20.937,22.284,8.571,8.053,20.936-22.284,14.182,13.327-28.289,30.109,8.775,8.245,68.667-73.085-8.775-8.245-12.711,13.53,4.281-9.464a80.41,80.41,0,0,0-18.089-2.012l-6.9,12.249a96.143,96.143,0,0,1,17.715,2.41l-12.712,13.529L336.945,350.36l20.937-22.283-8.571-8.054-20.936,22.284-12.55-11.792,24.8-26.4-8.774-8.245Zm67.026-103.847L232.5,369.1,322.6,453.756l11.964-12.733-3.877-3.643,80.756-85.951,3.877,3.643,11.964-12.733ZM321.6,428.847L253.651,365l80.755-85.95L402.358,342.9ZM498.673,147.482l19.066,35.207-34.41,18.632,6.2,11.449,34.41-18.632,27.333,50.471L511.26,266.275l6.2,11.449,94.428-51.131-6.2-11.449L566.637,236.29,539.3,185.818l35.37-19.152-6.2-11.449L533.1,174.369l-19.067-35.207ZM464.4,249.3l26.067,48.133,14.884-8.059-26.8-49.487a156.836,156.836,0,0,1,23.392,2.3l3.176-14.774a183,183,0,0,0-32.461.065c3.976-13.3,5.551-25.294,4.886-36.078l-5.333-9.848-16.965,9.186A173.174,173.174,0,0,0,438.4,178.366l-12.737,10.877c5.121,2.959,10.081,6,15.015,9.382l-22.566,12.219,6.066,11.2,38.732-20.972c-0.563,16.543-7.873,37.059-21.706,61.583l11.468,9.711Q459.356,260.629,464.4,249.3Zm228.078-142.72L681.738,118c18.192,6.744,35.1,13.57,50.38,20.543-11.987,13.771-26.969,25.227-44.743,34.474l11.949,10.118c18.728-10.126,34.64-22.6,47.507-37.662a401,401,0,0,1,38.714,21.463L797.009,154.4c-12.359-7.2-26-14.323-40.506-21.147a164.322,164.322,0,0,0,20.147-39.8l-16.532-3.624a155.406,155.406,0,0,1-18.483,36.667C726.384,119.652,709.878,113.038,692.476,106.582ZM646.49,92.088l20.546,116.5,149.3-26.328-2.213-12.546L681.133,193.166l-16.12-91.408L792.45,79.286,790.237,66.74Zm241.83,12.475,43.944,6.407q-24.731,40.962-65.705,60.879l7.048,13.479a154.815,154.815,0,0,0,56.134-41.9c4.572,9.014,12.266,18.059,22.923,26.97-13.655,4.093-29.951,7.376-48.688,9.738l7.188,13.782q32.43-4.823,55.437-13.14c13.718,9.357,31.1,18.824,52,28.1l10.65-11.182c-18.55-7.8-34.33-15.617-47.17-23.431,14.66-7.2,24.98-16.166,31.32-26.843l1.61-11.084-72.037-10.5c2.407-3.893,5.014-7.9,7.481-12.208l86.806,12.657,1.84-12.607-82.487-12.027a279.031,279.031,0,0,0,12.407-29.6l-17.228-4.21a252.341,252.341,0,0,1-13.008,31.211l-26.655-3.886,13.1-24.265-16.786-4.711Zm54.9,33.472,52.769,7.694c-6.214,7.3-15.609,13.712-27.985,19.123C956.224,156.06,947.97,147.075,943.218,138.035Zm56.28-63.1L986.7,81.98c12.177,9.84,21.17,18.792,27.33,27.046l13.62-7.635A206.372,206.372,0,0,0,999.5,74.933Zm142,97.408-5.29,10.5,22.43,11.3-5.29,10.5-28.77-14.488a168.554,168.554,0,0,0,12.45-20.69l4.79-9.5,27.14,13.669-5.03,10Zm-24.29,27.588,19.67,9.9-9.44,18.757c-2.02,4-5.78,5.4-11.41,4.445l-1,12.507a443.745,443.745,0,0,0,51.35,14.57l2.55-12.353a242.261,242.261,0,0,1-28.89-6.555L1152,217.445l20.16,10.15q4.125,38.528,43.5,69.4l12.98-7.571a126.533,126.533,0,0,1-24.48-22.2,80.029,80.029,0,0,0,22.28-3.362l-5.84-11.875,16.25,8.185,5.42-10.754-29.91-15.061,5.28-10.5,24.39,12.278,5.29-10.5-24.39-12.278,5.04-10,22.6,11.377,16.36-32.512-124.35-62.618-21.15,42.016c-12.63,24.678-27.97,42.191-46.14,52.79l8.17,14.931A130.441,130.441,0,0,0,1117.21,199.929Zm70.55,35.524,30.72,15.47a65.872,65.872,0,0,1-23.17,3.535A73.281,73.281,0,0,1,1187.76,235.453Zm25.26-39.638-5.04,10-29.26-14.734,5.04-10Zm-44.88,16.278,5.29-10.5,29.26,14.734-5.29,10.5Zm77.71-26.861-5.54,11-93.14-46.9,5.54-11Zm174.77,195.426-9.71-5.729c6.82-6.839,14.57-14.343,22.97-22.769l-25.9-25.831,16.21-16.257-11.86-11.823-16.21,16.256-20.88-20.819-9.09,9.119,20.88,20.82-0.6.594c-27.27,26.577-56.16,36.723-86.62,30.666l2.93,15.369c33.74,6.369,65.47-5.087,95.55-34.211l0.59-.6,13.79,13.751c-27.44,27-43.75,42.576-49.27,46.563-6.04,4.255-11.7,3.747-17.11-1.65-3.1-3.085-6.64-7.01-10.56-11.32l-5.64,11.579c4.34,4.924,7.5,8.464,9.56,10.52,11.34,11.309,21.71,13.543,31,6.8,6.21-4.681,18.52-15.735,36.8-33.291-3.16,9.1-7.25,18.867-12.12,29.426l12.41,5.854A268.688,268.688,0,0,0,1420.62,380.658Zm-64.52-64.941a78.313,78.313,0,0,1-37.21,8.959l2.31,14.173c13.03,0.339,27.31-3.412,42.69-11.61Zm-30.08-60.047-8.8,8.822,13.92,13.88-59.91,60.069,11.73,11.7,59.91-60.069,13.4,13.365,8.8-8.822-13.4-13.366,21.94-22.005-11.72-11.695-21.95,22.006Zm226.43,233.561c-25.89-10.568-51.49-27.4-76.86-50.266l-7.3,14.1q14.01,11.885,27.78,21.441l-9.87,4.99L1527,560.22l9.37-4.737a250.347,250.347,0,0,0,.84,33.632l15.77,2.635a266.609,266.609,0,0,1,5.22-91.149Zm-53.78-12.988a212.37,212.37,0,0,0,46.04,24.042,232.019,232.019,0,0,0-8.11,51ZM1459.44,461l-11.5,5.811,19.22,38.009a166.855,166.855,0,0,1-36.2-9.847c-2.19-.93-4.63-2.96-7.27-6.317l-8.11,9.4q31.44,55.688,55.07,91.261c-1.81,4.791-3.71,9.42-5.56,13.824l13.48,9.295c5.02-12.732,10.01-29.534,14.91-50.568l-11.95-9.052c-2.04,8.374-4.2,16.2-6.61,23.534-13-20.756-25.83-42.413-38.65-65.3a149.623,149.623,0,0,0,39.92,11.633l38.26,75.694,11.49-5.811ZM130.332,899.777c-0.844-15.418-3.66-27.15-9-35.451-4.7-7.468-10.584-11.184-17.835-11.128-7.378.049-13.259,3.751-17.51,11.51-4.907,8.783-7.2,21.95-6.267,38.907,0.617,11.152,2.825,20.463,6.477,27.892,3.909,7.974,8.854,12.524,14.711,13.977q-0.741-7.266-1.37-14.609c-3.976-1.515-7.132-4.7-9.419-9.6-2.129-4.629-3.446-10.819-3.858-18.287-0.63-11.493.793-20.2,4.046-25.841,3.061-5.355,7.526-8.086,13.4-8.251q8.513-.245,13.659,7.329c3.784,5.318,5.831,13.241,6.4,23.753,0.391,7.1.029,12.839-1.2,17.59s-3.417,8.109-6.547,10.1q0.6,7.19,1.319,14.3c4.745-2.114,8.251-6.869,10.511-14.116C130.228,920.316,130.952,911,130.332,899.777ZM135,954.242l-49.347,7.391q0.862,7.351,1.834,14.622l19.61-3.321c3.044-.516,5.739.531,8.119,3.218,2.363,2.556,3.849,6.177,4.564,10.859,0.795,5.2.645,9.362-.6,12.3a8.654,8.654,0,0,1-6.375,5.1l-20.356,4.35q1.217,7.08,2.541,14.09,10.747-2.505,21.493-5a12.482,12.482,0,0,0,9.32-8.13c1.743-4.63,1.895-10.847.627-18.811a44,44,0,0,0-3.076-11.114,23.909,23.909,0,0,0-5.84-8.625l19.205-3.252Q135.808,961.117,135,954.242Zm13.353,81.178a12.941,12.941,0,0,0-2.7-5.96q-1.842-2.235-3.94-1.7c-1.334.34-2.355,1.51-2.922,3.48a14.363,14.363,0,0,0,.055,6.74,13.8,13.8,0,0,0,2.761,5.99c1.321,1.45,2.675,2.09,4.067,1.7s2.321-1.55,2.8-3.48A14.141,14.141,0,0,0,148.354,1035.42Zm-15.185-2.86q-17.223,4.455-34.445,8.92,1.464,6.9,3.032,13.71,17.153-4.77,34.305-9.55Q134.566,1039.145,133.169,1032.56Zm16.644,61.32a38.128,38.128,0,0,0-4.3-9.79,26.053,26.053,0,0,0-6.092-6.96c1.4-.46,2.8-0.91,4.2-1.36q-1.722-6.33-3.349-12.72l-34.1,10.38q1.706,6.705,3.511,13.33,10.209-3.3,20.418-6.61c2.89-.41,5.549.7,7.926,3.06a20.019,20.019,0,0,1,4.794,8.7c2.789,9.45,1.484,15.25-4.229,17.38q-10.054,3.7-20.109,7.42,2.031,6.435,4.16,12.8,10.287-4.005,20.575-8C152.388,1117.9,154.316,1108.8,149.813,1093.88Zm21.628,61.91c-2.808-7-5.693-12.46-8.805-16.06-3.486-4.22-7.305-6.29-11.343-6.07q1.851,6.12,3.794,12.17c2.1-.11,4.073,1,5.992,3.29a30.712,30.712,0,0,1,4.623,8.37c3.447,8.6,3.019,13.88-1.5,16.05l-1.317.63q-2.791-6.345-5.479-12.78c-3.521-8.43-7.021-14.83-10.7-18.84-3.909-4.45-7.73-5.97-11.453-4.45-2.757,1.12-4.345,3.92-4.667,8.52-0.449,4.24.475,9.57,2.9,15.84a53.471,53.471,0,0,0,7.074,13.1,26.038,26.038,0,0,0,7.433,6.66c-1.525.73-3.049,1.45-4.574,2.18q2.351,5.55,4.778,11.02l20.535-10.2a11.869,11.869,0,0,0,6.748-9.5c0.691-5.04-.7-11.62-4.035-19.93h0Zm-13.38,20.68-1.881.9c-2.5,1.19-5.443.32-8.634-2.5a30.164,30.164,0,0,1-7.851-11.92,19.748,19.748,0,0,1-1.613-8.05c0.084-2.32.759-3.68,2.033-4.23,4.095-1.75,8.259,2.87,12.745,13.72Q155.413,1170.48,158.061,1176.47Zm75.6,73.28c-6.522-10.72-13.379-17.67-21.188-20.86-6.932-2.92-13.5-2.56-19.887,1.17a21.557,21.557,0,0,0-11.191,17.06c-1.068,8.75,1.811,19.31,8.986,31.09,4.723,7.76,10.176,13.43,16.2,17.01,6.458,3.86,12.548,4.71,18.274,2.82q-3.4-4.98-6.724-10.04a15.529,15.529,0,0,1-11.934-2.24c-3.621-2.29-7.11-6.13-10.272-11.32-4.862-7.99-6.852-14.95-6.083-20.64,0.708-5.38,3.637-9.59,8.765-12.7q7.428-4.5,14.795-1.7c5.325,1.88,10.089,6.52,14.534,13.83,3,4.93,4.84,9.29,5.541,13.37a14.3,14.3,0,0,1-1.985,10.7q3.243,4.95,6.56,9.83c3.4-3.96,4.7-9.24,3.963-15.69-0.74-6.73-3.6-13.89-8.356-21.69h0Zm29.141,66.81c-5.206-6.78-10.731-11.24-16.684-13.28-5.89-2.09-11.024-1.52-15.467,1.77-4.381,3.24-6.54,8.1-6.238,14.51,0.324,6.68,3.147,13.72,8.622,20.85s11.477,11.55,17.712,13.42c5.991,1.78,11.1.76,15.228-2.81,4.185-3.62,5.906-8.63,5.43-14.84C270.917,1329.83,268.014,1323.33,262.806,1316.56Zm-4.752,3.81c3.3,4.29,4.865,8.4,4.7,12.57a11.672,11.672,0,0,1-4.373,8.86,11.038,11.038,0,0,1-9.37,2.53c-4.027-.78-7.8-3.29-11.219-7.73s-4.917-8.8-4.645-12.9a11.142,11.142,0,0,1,4.689-8.62,11,11,0,0,1,9.418-2.3C251.2,1313.53,254.757,1316.08,258.054,1320.37Zm47.493,46.38a26.127,26.127,0,0,0-14.047-7.92l2.942-2.7q-3.839-4.275-7.611-8.62l-27.044,24.09q3.954,4.56,7.977,9.03,8.024-7.365,16.048-14.74a7.649,7.649,0,0,1,7.095-1.76c2.807,0.38,5.529,2.01,8.052,4.71,5.193,5.56,5.924,10.31,1.819,14.34q-8.014,7.845-16.029,15.68,4.159,4.305,8.385,8.53,7.845-7.905,15.692-15.82a7.46,7.46,0,0,1,6.8-2.23,13.52,13.52,0,0,1,7.342,3.95c3.108,3.01,5.028,5.68,5.488,8.04,0.508,2.31-.256,4.56-2.262,6.72q-7.668,8.235-15.335,16.46,4.355,4.065,8.768,8.04,7.965-8.82,15.93-17.63c2.726-3.02,3.434-6.71,2.4-10.98-1.067-4.41-3.7-8.47-7.8-12.4a29.717,29.717,0,0,0-7.7-5.61,22.86,22.86,0,0,0-9.008-2.24C313.864,1378.34,311.164,1372.72,305.547,1366.75Zm68.914,63.57a25.81,25.81,0,0,0-14.9-5.78c0.861-1.01,1.721-2.03,2.582-3.04q-4.33-3.63-8.607-7.34-11.916,13.65-23.832,27.29,4.482,3.9,9.021,7.69,7.044-8.31,14.087-16.63a7.823,7.823,0,0,1,6.815-2.71c2.83-.02,5.728,1.19,8.563,3.48,5.833,4.7,7.145,9.25,3.574,13.75q-6.977,8.79-13.952,17.56,4.656,3.63,9.366,7.19,6.8-8.82,13.6-17.65a7.6,7.6,0,0,1,6.465-3.11,13.418,13.418,0,0,1,7.767,2.86c3.453,2.52,5.687,4.88,6.435,7.13,0.788,2.19.31,4.5-1.412,6.89q-6.584,9.105-13.166,18.22,4.818,3.39,9.687,6.69l13.613-19.44c2.328-3.33,2.574-7.05,1.019-11.1-1.6-4.17-4.715-7.8-9.27-11.08a29.04,29.04,0,0,0-8.333-4.45,23.019,23.019,0,0,0-9.207-.96c-0.238-5.28-3.61-10.41-9.913-15.46h0ZM427.9,1470.2l-12.613,18.69c-5.457,8.02-2.481,15.94,9.36,23.22,6.152,3.77,12.357,5.16,18.574,4.24-0.846,1.4-1.691,2.79-2.537,4.19q5.079,2.94,10.2,5.81l18.264-31.2q-4.885-2.73-9.731-5.54l-11.45,18.9a12.754,12.754,0,0,1-8.068,2.74,16.261,16.261,0,0,1-8.52-2.33c-3.861-2.34-6.253-4.73-7.168-6.95-1.01-2.28-.615-4.68,1.07-7.26l12.061-18.45Q432.6,1473.275,427.9,1470.2Zm77.532,42.83a28.5,28.5,0,0,0-8.873-2.84,22.488,22.488,0,0,0-8.428.25q1.068-1.965,2.135-3.93-4.971-2.565-9.9-5.21-8.862,15.735-17.724,31.49,5.171,2.775,10.382,5.46,5.188-9.54,10.375-19.09a10.106,10.106,0,0,1,7.384-3.99,15.705,15.705,0,0,1,8.563,1.79c7.617,3.76,10.2,8.33,7.459,13.84q-4.839,9.69-9.677,19.36,5.3,2.5,10.64,4.93,4.828-10.035,9.657-20.06c4.28-8.96.121-16.12-11.988-22h0Zm42.838,4.65a9.591,9.591,0,0,0-5.532-.83,4.046,4.046,0,0,0-2.985,6.54,9.868,9.868,0,0,0,4.441,3.4,10.451,10.451,0,0,0,5.6.82,4.49,4.49,0,0,0,3.579-2.45,3.979,3.979,0,0,0-.6-4.09,9.687,9.687,0,0,0-4.5-3.39h0Zm-11.048,11q-7.492,16.395-14.986,32.81,5.387,2.31,10.809,4.54,7.243-16.5,14.489-33.02-5.172-2.13-10.312-4.33h0Zm44.059,4.93q-5.733-.45-11.48-1-1.614,3.975-3.229,7.94-4.736-1.8-9.446-3.66c-0.8,1.88-1.592,3.77-2.388,5.65q4.75,1.875,9.524,3.7-3.937,9.675-7.875,19.37a7.174,7.174,0,0,0,.524,7.2c1.467,2.26,4.582,4.32,9.163,5.97,2.95,1.06,5.906,2.11,8.868,3.13,0.713-1.91,1.425-3.83,2.138-5.74-2.351-.82-4.7-1.64-7.041-2.48a5.6,5.6,0,0,1-2.641-1.69,2.428,2.428,0,0,1-.144-2.35q3.791-9.75,7.582-19.48,5.9,2.145,11.839,4.19,1.063-2.865,2.128-5.75-5.889-2.025-11.743-4.16,2.11-5.415,4.221-10.84h0Zm10.519,16.03q4.21,20.01,9.488,40.04-7.062,5.46-14.283,10.81,6.056,1.95,12.143,3.82,22.918-19,44.113-39.14-5.925-1.56-11.824-3.22-10.726,10.6-21.9,20.93-3.381-14.715-6.213-29.42Q597.544,1551.6,591.8,1549.64Zm96.442,12.06-10.851,48.39q14,2.9,28.108,5.3c12.578,2.15,22.517,1.32,29.7-2.19,6.847-3.41,10.773-9.03,11.81-16.72,1.047-7.78-1.109-14.11-6.316-19.01-5.582-5.31-14.152-8.77-25.922-10.77q-13.31-2.28-26.529-5h0Zm9.784,8.53q6.738,1.29,13.5,2.46c9.288,1.61,15.874,4.07,19.787,7.66,3.71,3.49,5.247,8.32,4.3,14.63-0.928,6.18-3.862,10.4-8.774,12.7-5.012,2.28-12.569,2.69-22.325.99q-6.99-1.215-13.955-2.54,3.734-17.955,7.468-35.9h0Zm84.265,17.75c-8.009-.66-14.6.49-19.685,3.66-5.284,3.06-8.2,7.19-8.861,12.49-0.734,5.85,1.285,10.77,6.163,14.77,4.458,3.75,11.044,6.07,19.466,6.76,7.645,0.62,14.083-.35,19.221-2.76a16.493,16.493,0,0,0,8.293-7.95q-5.79-.285-11.576-0.65a14.475,14.475,0,0,1-5.481,4.29,23.08,23.08,0,0,1-10.034,1.05c-4.617-.38-8.151-1.67-10.591-3.72a10.778,10.778,0,0,1-3.612-8.43q21.2,2.115,42.507,3.14c0.225-6.37-1.778-11.46-5.812-15.3C797.845,1591.05,791.138,1588.7,782.287,1587.98Zm-0.218,6.03c8.917,0.72,13.694,4.12,14.355,10.42q-15.031-.945-30.019-2.43a11.041,11.041,0,0,1,5.327-6.46C774.458,1594.13,777.819,1593.66,782.069,1594.01Zm30.788-3.15q9.3,18.345,19.6,36.47c3.922,0.08,7.845.12,11.768,0.14q10.755-17.865,20.529-36-6.09.135-12.181,0.16-6.81,13.38-14.114,26.64-6.96-13.425-13.425-26.97Q818.943,1591.135,812.857,1590.86Zm81.895-1.52c-8.024.46-14.372,2.52-18.926,6.35-4.766,3.76-7.025,8.24-6.883,13.58,0.156,5.89,2.9,10.48,8.328,13.77,4.976,3.09,11.845,4.48,20.282,4,7.658-.45,13.882-2.3,18.6-5.39a16.207,16.207,0,0,0,7-9.01q-5.774.51-11.553,0.95a14.183,14.183,0,0,1-4.776,5.01,22.857,22.857,0,0,1-9.77,2.42c-4.626.27-8.318-.53-11.041-2.21a10.944,10.944,0,0,1-4.847-7.85q21.3-.84,42.537-2.76c-0.74-6.34-3.491-11.1-8.061-14.34-5.04-3.62-12.032-5.02-20.9-4.52h0Zm0.7,6.01c8.931-.52,14.171,2.18,15.776,8.33q-15.017,1.14-30.071,1.73a10.834,10.834,0,0,1,4.3-7.12c2.483-1.78,5.74-2.7,10-2.94h0Zm35.4-22.62q2.851,25.1,5.7,50.18,5.85-.615,11.691-1.3l-6.461-50.09Q936.316,1572.165,930.844,1572.73Zm51.4,6.81c-8.126,1.36-14.4,4.12-18.8,8.4-4.409,4.2-6.226,8.98-5.44,14.4,0.776,5.36,3.906,9.5,9.464,12.22,5.792,2.82,13.038,3.63,21.583,2.2s15.065-4.57,19.515-9.11c4.26-4.36,5.74-9.28,4.57-14.57-1.19-5.36-4.7-9.24-10.23-11.77-5.655-2.59-12.534-3.14-20.66-1.77h0Zm1.086,5.94c5.147-.86,9.373-0.28,12.853,1.83a11.622,11.622,0,0,1,5.571,8,11.046,11.046,0,0,1-2.1,9.36c-2.5,3.14-6.364,5.25-11.69,6.15s-9.706.17-13.063-1.99a11.1,11.1,0,0,1-5.2-8.13,11.228,11.228,0,0,1,2.3-9.33C974.411,1588.27,978.18,1586.35,983.326,1585.48Zm62.764-19.39c-7.16,1.82-12.26,4.81-15.13,9.11-0.35-1.39-.7-2.78-1.04-4.18q-5.1,1.185-10.22,2.3,5.715,24.165,11.41,48.34,5.85-1.26,11.66-2.62-2.325-9.225-4.65-18.46c5.52,2.99,11.68,3.66,18.56,1.91,7.96-2.03,13.75-5.57,17.11-10.41a15.751,15.751,0,0,0,2.34-14.33,17.142,17.142,0,0,0-10.16-11.14c-5.59-2.33-12.11-2.49-19.88-.52h0Zm-0.06,6.19c5.36-1.36,9.6-1.19,12.92.66a13.1,13.1,0,0,1,5.82,8,11.707,11.707,0,0,1-.98,9.85c-1.98,2.98-5.71,5.19-11.26,6.59-4.27,1.07-7.99.82-11.08-.66a11.249,11.249,0,0,1-6.65-8c-0.05-.2-0.1-0.4-0.15-0.61a11.541,11.541,0,0,1,1.27-9.43c1.96-3.11,5.36-5.21,10.11-6.4h0Zm59.41-23.83a24.783,24.783,0,0,0-12.61,9.38l-1.29-3.75q-5.34,1.7-10.69,3.33,5.6,17.1,11.2,34.19,5.61-1.695,11.2-3.49-3.525-10.23-7.05-20.47a7.547,7.547,0,0,1,1.17-7.11c1.44-2.37,3.96-4.14,7.38-5.3,7.05-2.38,11.63-1.08,13.67,4.27q3.945,10.41,7.9,20.84,5.535-1.95,11.03-3.99-4.08-10.3-8.16-20.6a7.282,7.282,0,0,1,.66-7.02,12.943,12.943,0,0,1,6.49-4.93c3.96-1.54,7.17-2.14,9.5-1.57,2.3,0.5,4.05,2.12,5.21,4.81q4.44,10.275,8.89,20.54,5.43-2.2,10.83-4.49-4.86-10.785-9.71-21.56c-1.66-3.69-4.75-5.86-9.06-6.71-4.44-.88-9.2-0.22-14.4,1.83a28.7,28.7,0,0,0-8.16,4.56,21.971,21.971,0,0,0-5.58,7.15c-4.68-2.59-10.84-2.5-18.42.09h0Zm82.68-33.86c-7.22,3.48-12.25,7.78-14.92,13.04-2.89,5.27-3.18,10.26-.91,15.14,2.5,5.37,6.87,8.57,13.19,9.55,5.83,0.97,12.72-.34,20.31-4,6.88-3.33,11.88-7.41,15-12.08a15.967,15.967,0,0,0,2.84-11.01q-5.115,2.7-10.26,5.31a13.95,13.95,0,0,1-2.4,6.45,22.58,22.58,0,0,1-8.04,5.96c-4.16,2.01-7.88,2.67-11.07,2.15a11.3,11.3,0,0,1-7.61-5.4q19.32-8.85,38.11-18.77c-3.22-5.57-7.66-8.91-13.16-10.15C1203.1,1509.37,1196.09,1510.75,1188.12,1514.59Zm3.04,5.28c8.03-3.88,13.94-3.39,17.88,1.67q-13.38,6.8-27.03,13.05a10.66,10.66,0,0,1,1.11-8.21C1184.7,1523.8,1187.33,1521.71,1191.16,1519.87Zm53.33-35.59a27.952,27.952,0,0,0-7.19,5.85,21.294,21.294,0,0,0-4.26,7.11q-1.14-1.92-2.28-3.85-4.875,2.76-9.79,5.44,8.97,15.69,17.94,31.37,5.16-2.805,10.26-5.7-5.535-9.345-11.07-18.71a9.6,9.6,0,0,1,.46-8.23,15.167,15.167,0,0,1,6.11-6.15c7.32-4.33,12.68-4.05,16.01,1.13q5.835,9.15,11.68,18.28,5.01-3.075,9.96-6.23l-12.3-18.63C1264.51,1477.66,1256.06,1477.35,1244.49,1484.28Zm35.56-35.73q-3.63,4.425-7.35,8.79,2.46,3.525,4.91,7.07-4.215,2.835-8.46,5.62,1.71,2.55,3.44,5.1,4.29-2.79,8.54-5.66,6,8.61,12,17.24a7.526,7.526,0,0,0,6.41,3.6c2.76,0.07,6.27-1.31,10.27-4.12q3.87-2.715,7.7-5.49c-1.22-1.65-2.45-3.3-3.67-4.95-2.03,1.46-4.06,2.92-6.1,4.36a5.729,5.729,0,0,1-2.94,1.21,2.558,2.558,0,0,1-2.08-1.2q-6.12-8.52-12.25-17.06,5.175-3.615,10.28-7.32c-1.23-1.65-2.45-3.3-3.68-4.94q-5.07,3.675-10.19,7.25Q1283.46,1453.31,1280.05,1448.55Zm60.33-50.26q5.895,28.26,9.92,57.26,5.025-4.1,9.97-8.28-1.32-7.32-2.76-14.59,12.78-11.04,25.08-22.76,7.125,2.13,14.31,4.13,4.71-4.6,9.36-9.29-28.6-6.66-56.23-15.22-4.785,4.425-9.65,8.75h0Zm15.71,27.27q-2.58-12.78-5.51-25.41c0.11-.09.21-0.19,0.32-0.28q12.255,4.155,24.72,7.97-9.615,9.06-19.53,17.72h0Zm42.61-66.88c-4.51,4.95-7.62,9.57-9.18,13.94-1.6,4.31-1.21,7.6,1.14,9.92,2.19,2.16,5.47,2.33,9.78.36,2.63-1.13,6.67-3.84,11.96-8.16a109.76,109.76,0,0,1,9.3-7.18c2.95-1.84,5.17-2.27,6.48-1.1,2.39,2.14.55,6.87-5.66,13.72-3.04,3.34-5.54,5.31-7.58,6.16a7.69,7.69,0,0,1-6.59-.57q-3.975,4.2-8.03,8.34c6.87,4.96,16.01,1.91,26.89-10.03,11.69-12.92,14.34-22.3,8.58-27.25-2.44-2.11-5.86-1.95-10.19.31a76.1,76.1,0,0,0-12.14,8.61,102.789,102.789,0,0,1-9.31,6.99c-2.76,1.62-4.57,2.01-5.48,1.14-1.02-.97-1.15-2.46-0.25-4.46,0.68-1.75,2.26-3.86,4.6-6.43,2.65-2.9,4.99-4.9,6.92-5.81a7.38,7.38,0,0,1,5.7-.32q3.735-4.26,7.4-8.6C1416.4,1344.26,1408.43,1347.97,1398.7,1358.68Zm36.26-43.42c-4.12,5.39-6.88,10.33-8.11,14.87-1.28,4.49-.64,7.77,1.87,9.91,2.34,1.99,5.63,1.87,9.77-.49,2.54-1.37,6.37-4.45,11.32-9.28a111.425,111.425,0,0,1,8.74-8.06c2.8-2.13,4.98-2.75,6.37-1.69,2.55,1.95,1.07,6.9-4.62,14.36-2.78,3.63-5.13,5.84-7.1,6.87a7.56,7.56,0,0,1-6.6,0q-3.66,4.605-7.39,9.11c7.22,4.41,16.1.55,26.06-12.46,10.69-14.07,12.63-23.8,6.52-28.29-2.59-1.92-5.98-1.45-10.13,1.22a77.178,77.178,0,0,0-11.46,9.78,101.78,101.78,0,0,1-8.77,7.86c-2.62,1.89-4.4,2.43-5.37,1.63-1.08-.89-1.33-2.38-0.58-4.47,0.55-1.83,1.96-4.09,4.11-6.9,2.42-3.16,4.6-5.38,6.46-6.47a7.342,7.342,0,0,1,5.66-.83q3.4-4.635,6.74-9.35C1451.53,1299.12,1443.86,1303.59,1434.96,1315.26Zm35.59-51.4c-4.62,7.39-6.97,14.27-6.93,20.75-0.02,6.42,2.17,11.23,6.64,14.48,4.41,3.2,9.58,3.72,15.4,1.32,6.05-2.51,11.66-7.6,16.52-15.38s7.09-15.22,6.85-22.03c-0.23-6.54-2.78-11.26-7.42-14.1-4.69-2.89-9.91-2.84-15.55-.22C1480.31,1251.36,1475.18,1256.46,1470.55,1263.86Zm5.05,3.38c2.93-4.69,6.26-7.63,10.19-8.9a10.913,10.913,0,0,1,9.63,1.27,11.49,11.49,0,0,1,5.33,8.38c0.55,4.23-.59,8.81-3.62,13.66s-6.58,7.77-10.46,8.87a10.476,10.476,0,0,1-9.48-1.72,11.57,11.57,0,0,1-5.16-8.44c-0.57-4.11.65-8.44,3.57-13.12h0Zm27.46-61.64c-4.08,8.23-5.73,15.41-4.91,21.86,0.73,6.01,3.38,10.42,8.05,13.22,4.78,2.86,9.8,3.01,15.22.26,5.59-2.78,10.58-8.37,14.81-16.91,3.54-7.15,5.3-13.64,5.29-19.09a18.109,18.109,0,0,0-5.66-13.55q-2.565,5.745-5.23,11.42c4.31,3.58,4.55,9.7.35,18.2-2.45,4.94-5.34,7.97-8.53,9.29-3.36,1.5-6.8,1.15-10.3-.87a11.617,11.617,0,0,1-6.18-8.62c-0.67-3.71.14-7.74,2.4-12.3a24.718,24.718,0,0,1,5.96-8.27,8.205,8.205,0,0,1,6.89-2.06q2.625-5.61,5.16-11.27c-4.46-.91-8.69.38-12.62,3.58C1509.95,1193.76,1506.43,1198.8,1503.06,1205.6Zm7.21-48.3a11.938,11.938,0,0,0-1.07,6.13,4.274,4.274,0,0,0,2.25,3.76,4.027,4.027,0,0,0,4.21-.68,11.727,11.727,0,0,0,3.6-5,12.983,12.983,0,0,0,1.04-6.21c-0.27-1.92-1-3.28-2.33-3.88a3.813,3.813,0,0,0-4.13.8A11.665,11.665,0,0,0,1510.27,1157.3Zm10.6,11.84q16.2,7.74,32.39,15.49,2.55-6,5-12.07-16.3-7.47-32.62-14.94Q1523.3,1163.41,1520.87,1169.14Zm19.35-53.97c-2.44,7.32-3.81,13.46-3.82,18.38-0.13,5.65,1.36,9.93,4.46,12.71q2.52-5.79,4.95-11.68c-1.61-1.45-2.34-3.71-2.29-6.82a32.968,32.968,0,0,1,1.98-9.64c3-8.98,6.72-12.72,11.41-11.01,0.45,0.17.91,0.34,1.36,0.5q-2.04,6.9-4.21,13.7c-2.84,8.91-4.35,16.18-4.2,21.81,0.04,6.1,1.88,9.97,5.57,11.58,2.74,1.19,5.67.32,8.82-2.81,3.02-2.77,5.73-7.35,7.97-13.78a57.922,57.922,0,0,0,3.22-15.01,30.524,30.524,0,0,0-1.13-10.55c1.58,0.58,3.16,1.15,4.74,1.73q1.86-5.97,3.64-12-10.77-3.735-21.53-7.48a10.507,10.507,0,0,0-11.05,2.27C1546.35,1100.42,1543.12,1106.47,1540.22,1115.17Zm23.05-5.72c0.65,0.23,1.3.47,1.95,0.71,2.59,0.95,4.17,3.8,4.68,8.29a33.417,33.417,0,0,1-1.91,14.73,19.176,19.176,0,0,1-3.96,7.15c-1.54,1.66-2.9,2.17-4.18,1.64-4.11-1.72-4.23-8.12-.55-19.55q2.04-6.45,3.97-12.97h0Zm-16.39-55.36q-0.105,6.765-.32,13.5l8.1,2.55q-1.53,5.76-3.13,11.45,2.9,0.96,5.77,1.92,1.6-5.73,3.15-11.54,9.87,3.12,19.73,6.23a6.6,6.6,0,0,0,7.14-1.69c2.17-2.05,4.03-5.98,5.39-11.59q1.32-5.415,2.57-10.89c-1.95-.53-3.89-1.07-5.84-1.61-0.66,2.89-1.34,5.78-2.03,8.65a7.425,7.425,0,0,1-1.52,3.35,2.2,2.2,0,0,1-2.32.53q-9.915-2.94-19.83-5.87,1.77-7.215,3.43-14.54-2.925-.8-5.84-1.6-1.65,7.26-3.41,14.42Zm4.85-34.39a13.711,13.711,0,0,0,.03,6.7q0.765,2.91,2.86,3.45c1.33,0.34,2.72-.21,4.01-1.7a13.692,13.692,0,0,0,2.65-6.11,14.938,14.938,0,0,0-.07-6.81c-0.6-1.97-1.56-3.23-2.96-3.55s-2.71.28-3.91,1.81a13.694,13.694,0,0,0-2.61,6.21h0Zm12.47,10q17.25,4.4,34.48,8.78,1.44-6.915,2.78-13.91-17.31-4.065-34.6-8.14Q1565.585,1023.105,1564.2,1029.7Zm9.56-62.4c-1.34,10.214-.82,18.651,1.71,25.435,2.46,6.761,6.3,10.678,11.61,11.808,5.24,1.11,10.14-.96,14.49-6.452,4.53-5.728,7.66-13.955,9.06-24.695s0.53-19.829-2.33-26.976c-2.75-6.861-6.9-10.577-12.2-11.2-5.38-.63-10.08,2.158-14.17,7.895-4.17,5.866-6.84,13.965-8.17,24.18h0Zm5.88,0.973c0.84-6.47,2.72-11.33,5.79-14.712a10.038,10.038,0,0,1,9.22-3.653c3.46,0.474,6.14,2.51,8.08,6.144,2.14,4.22,2.88,9.675,2.01,16.371s-2.96,11.6-6.06,14.749a9.584,9.584,0,0,1-9.27,3.041,10.776,10.776,0,0,1-7.94-6.246c-2.1-4.034-2.67-9.225-1.83-15.694h0Zm1.04-84.982a50.1,50.1,0,0,0,.85,12.178,33.438,33.438,0,0,0,3.43,9.842l-4.36-.343q-0.435,7.291-.98,14.506l35.22,3.471q0.57-7.562,1.02-15.2l-21.21-1.668c-2.83-.788-4.96-3.056-6.42-6.519a26.322,26.322,0,0,1-1.66-11.189c0.46-11.211,3.56-16.965,9.58-16.779l21.19,0.686q0.18-7.83.25-15.74l-21.8-.259c-9.74-.092-14.48,9.177-15.11,27.018h0Z"/>
  <path id="椭圆_5" data-name="椭圆 5" class="cls-1" d="M851,4c469.44,0,850,380.558,850,850s-380.56,850-850,850S1,1323.44,1,854,381.558,4,851,4Zm0,38c448.46,0,812,363.545,812,812s-363.54,812-812,812S39,1302.46,39,854,402.545,42,851,42Z"/>
</svg>
